<mxfile host="app.diagrams.net" modified="2023-05-27T16:17:42.723Z" agent="Mozilla/5.0 (Windows NT 10.0; Win64; x64) AppleWebKit/537.36 (KHTML, like Gecko) Chrome/113.0.0.0 Safari/537.36" etag="B8wJOAJjfiBiRfXc1cpm" version="21.3.4" type="google">
  <diagram name="Page-1" id="p8gboSzpgFQ-gROTH9EV">
    <mxGraphModel grid="1" page="1" gridSize="10" guides="1" tooltips="1" connect="1" arrows="1" fold="1" pageScale="1" pageWidth="850" pageHeight="1100" math="0" shadow="0">
      <root>
        <mxCell id="0" />
        <mxCell id="1" parent="0" />
        <mxCell id="ZWq8WP5ecUGfKvafvffK-12" value="program" style="swimlane;startSize=20;html=1;" vertex="1" parent="1">
          <mxGeometry x="430" y="150" width="240" height="460" as="geometry" />
        </mxCell>
        <mxCell id="ZWq8WP5ecUGfKvafvffK-9" value="display products and offers" style="rounded=1;whiteSpace=wrap;html=1;" vertex="1" parent="ZWq8WP5ecUGfKvafvffK-12">
          <mxGeometry x="60" y="100" width="100" height="50" as="geometry" />
        </mxCell>
        <mxCell id="ZWq8WP5ecUGfKvafvffK-23" style="edgeStyle=orthogonalEdgeStyle;rounded=0;orthogonalLoop=1;jettySize=auto;html=1;exitX=0.5;exitY=1;exitDx=0;exitDy=0;entryX=0.5;entryY=0;entryDx=0;entryDy=0;" edge="1" parent="ZWq8WP5ecUGfKvafvffK-12" source="ZWq8WP5ecUGfKvafvffK-20" target="ZWq8WP5ecUGfKvafvffK-22">
          <mxGeometry relative="1" as="geometry" />
        </mxCell>
        <mxCell id="ZWq8WP5ecUGfKvafvffK-20" value="display product info&amp;nbsp;" style="rounded=1;whiteSpace=wrap;html=1;arcSize=39;" vertex="1" parent="ZWq8WP5ecUGfKvafvffK-12">
          <mxGeometry x="30" y="260" width="100" height="50" as="geometry" />
        </mxCell>
        <mxCell id="ZWq8WP5ecUGfKvafvffK-22" value="" style="ellipse;html=1;shape=endState;fillColor=#000000;strokeColor=#ff0000;" vertex="1" parent="ZWq8WP5ecUGfKvafvffK-12">
          <mxGeometry x="65" y="360" width="30" height="30" as="geometry" />
        </mxCell>
        <mxCell id="ZWq8WP5ecUGfKvafvffK-11" value="user" style="swimlane;startSize=20;html=1;" vertex="1" parent="1">
          <mxGeometry x="200" y="150" width="230" height="460" as="geometry" />
        </mxCell>
        <mxCell id="ZWq8WP5ecUGfKvafvffK-8" value="user navigates to the website" style="rounded=1;whiteSpace=wrap;html=1;" vertex="1" parent="ZWq8WP5ecUGfKvafvffK-11">
          <mxGeometry x="55" y="100" width="125" height="50" as="geometry" />
        </mxCell>
        <mxCell id="ZWq8WP5ecUGfKvafvffK-1" value="" style="ellipse;html=1;shape=startState;fillColor=#000000;strokeColor=#ff0000;" vertex="1" parent="ZWq8WP5ecUGfKvafvffK-11">
          <mxGeometry x="102.5" y="40" width="30" height="30" as="geometry" />
        </mxCell>
        <mxCell id="ZWq8WP5ecUGfKvafvffK-2" value="" style="edgeStyle=orthogonalEdgeStyle;html=1;verticalAlign=bottom;endArrow=open;endSize=8;strokeColor=#ff0000;rounded=0;entryX=0.5;entryY=0;entryDx=0;entryDy=0;" edge="1" parent="ZWq8WP5ecUGfKvafvffK-11" source="ZWq8WP5ecUGfKvafvffK-1" target="ZWq8WP5ecUGfKvafvffK-8">
          <mxGeometry relative="1" as="geometry">
            <mxPoint x="115" y="40" as="targetPoint" />
          </mxGeometry>
        </mxCell>
        <mxCell id="ZWq8WP5ecUGfKvafvffK-19" style="edgeStyle=orthogonalEdgeStyle;rounded=0;orthogonalLoop=1;jettySize=auto;html=1;exitX=0.5;exitY=1;exitDx=0;exitDy=0;" edge="1" parent="ZWq8WP5ecUGfKvafvffK-11" source="ZWq8WP5ecUGfKvafvffK-16" target="ZWq8WP5ecUGfKvafvffK-18">
          <mxGeometry relative="1" as="geometry" />
        </mxCell>
        <mxCell id="ZWq8WP5ecUGfKvafvffK-16" value="navigates through the website&amp;nbsp;" style="rounded=1;whiteSpace=wrap;html=1;" vertex="1" parent="ZWq8WP5ecUGfKvafvffK-11">
          <mxGeometry x="57.5" y="200" width="112.5" height="60" as="geometry" />
        </mxCell>
        <mxCell id="ZWq8WP5ecUGfKvafvffK-18" value="selects a certain product" style="rounded=1;whiteSpace=wrap;html=1;" vertex="1" parent="ZWq8WP5ecUGfKvafvffK-11">
          <mxGeometry x="60" y="290" width="110" height="50" as="geometry" />
        </mxCell>
        <mxCell id="ZWq8WP5ecUGfKvafvffK-15" style="edgeStyle=orthogonalEdgeStyle;rounded=0;orthogonalLoop=1;jettySize=auto;html=1;exitX=1;exitY=0.5;exitDx=0;exitDy=0;entryX=0;entryY=0.5;entryDx=0;entryDy=0;" edge="1" parent="1" source="ZWq8WP5ecUGfKvafvffK-8" target="ZWq8WP5ecUGfKvafvffK-9">
          <mxGeometry relative="1" as="geometry" />
        </mxCell>
        <mxCell id="ZWq8WP5ecUGfKvafvffK-17" style="edgeStyle=orthogonalEdgeStyle;rounded=0;orthogonalLoop=1;jettySize=auto;html=1;exitX=0.5;exitY=1;exitDx=0;exitDy=0;" edge="1" parent="1" source="ZWq8WP5ecUGfKvafvffK-9" target="ZWq8WP5ecUGfKvafvffK-16">
          <mxGeometry relative="1" as="geometry" />
        </mxCell>
        <mxCell id="ZWq8WP5ecUGfKvafvffK-21" style="edgeStyle=orthogonalEdgeStyle;rounded=0;orthogonalLoop=1;jettySize=auto;html=1;exitX=1;exitY=0.5;exitDx=0;exitDy=0;entryX=0.5;entryY=0;entryDx=0;entryDy=0;" edge="1" parent="1" source="ZWq8WP5ecUGfKvafvffK-18" target="ZWq8WP5ecUGfKvafvffK-20">
          <mxGeometry relative="1" as="geometry" />
        </mxCell>
        <mxCell id="ZWq8WP5ecUGfKvafvffK-24" value="AD_005_browse_items" style="text;html=1;align=center;verticalAlign=middle;resizable=0;points=[];autosize=1;strokeColor=none;fillColor=none;" vertex="1" parent="1">
          <mxGeometry x="200" y="118" width="150" height="30" as="geometry" />
        </mxCell>
      </root>
    </mxGraphModel>
  </diagram>
</mxfile>
